# xmcd
#
# Track frame offsets:
#	150
#	12924
#	29154
#	43893
#	56601
#	69982
#	82895
#	94329
#	109696
#	126849
#	140316
#	153937
#	167642
#
# Disc length: 2505 seconds
#
# Revision: 0
# Processed by: cddbd v1.5.2PL0 Copyright (c) Steve Scherf et al.
# Submitted via: audiograbber 1.83.01
#
DISCID=a909c70d
DTITLE=Dan McCoy - Rhythm of the Road
DYEAR=1997
DGENRE=Country
TTITLE0=When Trouble Comes Knockin'
TTITLE1=Twang Thang
TTITLE2=Let Me Dream
TTITLE3=Angels Like You
TTITLE4=C R A Z Y
TTITLE5=A Honky Tonk Heart And A Hillbilly Soul
TTITLE6=Love Turned To Stone
TTITLE7=All I Want Is All You Got
TTITLE8=Loving Without You
TTITLE9=Honky Tonk Money
TTITLE10=A New Moon In Her Eyes
TTITLE11=A Little Bump Of Lovin'
TTITLE12=Rhythm Of The Road
EXTD=
EXTT0=
EXTT1=
EXTT2=
EXTT3=
EXTT4=
EXTT5=
EXTT6=
EXTT7=
EXTT8=
EXTT9=
EXTT10=
EXTT11=
EXTT12=
PLAYORDER=
